# Made in Blockbench 5.0.4
mtllib blueberry.mtl

o cube
v 0.03125 -0.4375 0.03125
v 0.03125 -0.4375 -0.03125
v 0.03125 -0.5 0.03125
v 0.03125 -0.5 -0.03125
v -0.03125 -0.4375 -0.03125
v -0.03125 -0.4375 0.03125
v -0.03125 -0.5 -0.03125
v -0.03125 -0.5 0.03125
vt 0 1
vt 0.0625 1
vt 0.0625 0.9375
vt 0 0.9375
vt 0 0.9375
vt 0.0625 0.9375
vt 0.0625 0.875
vt 0 0.875
vt 0.0625 1
vt 0.125 1
vt 0.125 0.9375
vt 0.0625 0.9375
vt 0.0625 0.9375
vt 0.125 0.9375
vt 0.125 0.875
vt 0.0625 0.875
vt 0.0625 0.8125
vt 0 0.8125
vt 0 0.875
vt 0.0625 0.875
vt 0.1875 1
vt 0.125 1
vt 0.125 0.9375
vt 0.1875 0.9375
vn 0 0 -1
vn 1 0 0
vn 0 0 1
vn -1 0 0
vn 0 1 0
vn 0 -1 0
usemtl m_939a3186-0ea8-486f-a56f-c626c78df4dd
f 4/4/1 7/3/1 5/2/1 2/1/1
f 3/8/2 4/7/2 2/6/2 1/5/2
f 8/12/3 3/11/3 1/10/3 6/9/3
f 7/16/4 8/15/4 6/14/4 5/13/4
f 6/20/5 1/19/5 2/18/5 5/17/5
f 7/24/6 4/23/6 3/22/6 8/21/6