{"asset":{"version":"2.0","generator":"Blockbench 5.0.4 glTF exporter"},"scenes":[{"nodes":[5,12,13,14,15,16,17,18,19,20,21,22,23,24,25,26,27,28],"name":"blockbench_export"}],"scene":0,"nodes":[{"translation":[-0.043750000000000004,0,-0.043750000000000004],"name":"cube","mesh":0},{"translation":[0.05,0,-0.043750000000000004],"name":"cube","mesh":1},{"translation":[-0.037500000000000006,0,-0.043750000000000004],"name":"cube","mesh":2},{"translation":[-0.037500000000000006,0,-0.037500000000000006],"name":"cube","mesh":3},{"translation":[-0.037500000000000006,0,0.05],"name":"cube","mesh":4},{"rotation":[0,0.7071067811865475,0,0.7071067811865476],"name":"bone_Vase","children":[0,1,2,3,4]},{"translation":[-0.08750000000000001,0.018750000000000003,-0.037500000000000006],"name":"cube","mesh":5},{"translation":[-0.08750000000000001,0,-0.043750000000000004],"name":"cube","mesh":6},{"translation":[-0.08750000000000001,0,0.05],"name":"cube","mesh":7},{"translation":[0,0,-0.043750000000000004],"name":"cube","mesh":8},{"translation":[-0.09375,0,-0.043750000000000004],"name":"cube","mesh":9},{"translation":[0.05,0,0],"name":"bone_open","children":[6,7,8,9,10]},{"rotation":[0,0.7071067811865475,0,0.7071067811865476],"translation":[0,0.07500000000000001,0],"name":"bone_Lit","children":[11]},{"rotation":[0,0.7071067811865475,0,0.7071067811865476],"translation":[0.03125,0.018750000000000003,-0.03125],"name":"bone1"},{"rotation":[0,0.7071067811865475,0,0.7071067811865476],"translation":[0.03125,0.018750000000000003,-0.0125],"name":"bone2"},{"rotation":[0,0.7071067811865475,0,0.7071067811865476],"translation":[0.03125,0.018750000000000003,0.0125],"name":"bone3"},{"rotation":[0,0.7071067811865475,0,0.7071067811865476],"translation":[0.03125,0.018750000000000003,0.03125],"name":"bone4"},{"rotation":[0,0.7071067811865475,0,0.7071067811865476],"translation":[0.0125,0.018750000000000003,-0.03125],"name":"bone5"},{"rotation":[0,0.7071067811865475,0,0.7071067811865476],"translation":[0.0125,0.018750000000000003,-0.0125],"name":"bone6"},{"rotation":[0,0.7071067811865475,0,0.7071067811865476],"translation":[0.0125,0.018750000000000003,0.0125],"name":"bone7"},{"rotation":[0,0.7071067811865475,0,0.7071067811865476],"translation":[0.0125,0.018750000000000003,0.03125],"name":"bone8"},{"rotation":[0,0.7071067811865475,0,0.7071067811865476],"translation":[-0.0125,0.018750000000000003,-0.03125],"name":"bone9"},{"rotation":[0,0.7071067811865475,0,0.7071067811865476],"translation":[-0.0125,0.018750000000000003,-0.0125],"name":"bone10"},{"rotation":[0,0.7071067811865475,0,0.7071067811865476],"translation":[-0.0125,0.018750000000000003,0.0125],"name":"bone11"},{"rotation":[0,0.7071067811865475,0,0.7071067811865476],"translation":[-0.0125,0.018750000000000003,0.03125],"name":"bone12"},{"rotation":[0,0.7071067811865475,0,0.7071067811865476],"translation":[-0.03125,0.018750000000000003,-0.03125],"name":"bone13"},{"rotation":[0,0.7071067811865475,0,0.7071067811865476],"translation":[-0.03125,0.018750000000000003,-0.0125],"name":"bone14"},{"rotation":[0,0.7071067811865475,0,0.7071067811865476],"translation":[-0.03125,0.018750000000000003,0.0125],"name":"bone15"},{"rotation":[0,0.7071067811865475,0,0.7071067811865476],"translation":[-0.03125,0.018750000000000003,0.018750000000000003],"name":"bone16"}],"bufferViews":[{"buffer":0,"byteOffset":0,"byteLength":288,"target":34962,"byteStride":12},{"buffer":0,"byteOffset":288,"byteLength":288,"target":34962,"byteStride":12},{"buffer":0,"byteOffset":576,"byteLength":192,"target":34962,"byteStride":8},{"buffer":0,"byteOffset":768,"byteLength":72,"target":34963},{"buffer":0,"byteOffset":840,"byteLength":288,"target":34962,"byteStride":12},{"buffer":0,"byteOffset":1128,"byteLength":288,"target":34962,"byteStride":12},{"buffer":0,"byteOffset":1416,"byteLength":192,"target":34962,"byteStride":8},{"buffer":0,"byteOffset":1608,"byteLength":72,"target":34963},{"buffer":0,"byteOffset":1680,"byteLength":288,"target":34962,"byteStride":12},{"buffer":0,"byteOffset":1968,"byteLength":288,"target":34962,"byteStride":12},{"buffer":0,"byteOffset":2256,"byteLength":192,"target":34962,"byteStride":8},{"buffer":0,"byteOffset":2448,"byteLength":72,"target":34963},{"buffer":0,"byteOffset":2520,"byteLength":288,"target":34962,"byteStride":12},{"buffer":0,"byteOffset":2808,"byteLength":288,"target":34962,"byteStride":12},{"buffer":0,"byteOffset":3096,"byteLength":192,"target":34962,"byteStride":8},{"buffer":0,"byteOffset":3288,"byteLength":72,"target":34963},{"buffer":0,"byteOffset":3360,"byteLength":288,"target":34962,"byteStride":12},{"buffer":0,"byteOffset":3648,"byteLength":288,"target":34962,"byteStride":12},{"buffer":0,"byteOffset":3936,"byteLength":192,"target":34962,"byteStride":8},{"buffer":0,"byteOffset":4128,"byteLength":72,"target":34963},{"buffer":0,"byteOffset":4200,"byteLength":288,"target":34962,"byteStride":12},{"buffer":0,"byteOffset":4488,"byteLength":288,"target":34962,"byteStride":12},{"buffer":0,"byteOffset":4776,"byteLength":192,"target":34962,"byteStride":8},{"buffer":0,"byteOffset":4968,"byteLength":72,"target":34963},{"buffer":0,"byteOffset":5040,"byteLength":288,"target":34962,"byteStride":12},{"buffer":0,"byteOffset":5328,"byteLength":288,"target":34962,"byteStride":12},{"buffer":0,"byteOffset":5616,"byteLength":192,"target":34962,"byteStride":8},{"buffer":0,"byteOffset":5808,"byteLength":72,"target":34963},{"buffer":0,"byteOffset":5880,"byteLength":288,"target":34962,"byteStride":12},{"buffer":0,"byteOffset":6168,"byteLength":288,"target":34962,"byteStride":12},{"buffer":0,"byteOffset":6456,"byteLength":192,"target":34962,"byteStride":8},{"buffer":0,"byteOffset":6648,"byteLength":72,"target":34963},{"buffer":0,"byteOffset":6720,"byteLength":288,"target":34962,"byteStride":12},{"buffer":0,"byteOffset":7008,"byteLength":288,"target":34962,"byteStride":12},{"buffer":0,"byteOffset":7296,"byteLength":192,"target":34962,"byteStride":8},{"buffer":0,"byteOffset":7488,"byteLength":72,"target":34963},{"buffer":0,"byteOffset":7560,"byteLength":288,"target":34962,"byteStride":12},{"buffer":0,"byteOffset":7848,"byteLength":288,"target":34962,"byteStride":12},{"buffer":0,"byteOffset":8136,"byteLength":192,"target":34962,"byteStride":8},{"buffer":0,"byteOffset":8328,"byteLength":72,"target":34963},{"buffer":0,"byteOffset":8400,"byteLength":12},{"buffer":0,"byteOffset":8412,"byteLength":48}],"buffers":[{"byteLength":8460,"uri":"data:application/octet-stream;base64,"}],"accessors":[{"bufferView":0,"componentType":5126,"count":24,"max":[0,0.07500000298023224,0.09375],"min":[-0.0062500000931322575,0,-0.0062500000931322575],"type":"VEC3"},{"bufferView":1,"componentType":5126,"count":24,"max":[1,1,1],"min":[-1,-1,-1],"type":"VEC3"},{"bufferView":2,"componentType":5126,"count":24,"max":[0.2655029296875,0.4530029296875],"min":[0.0001220703125,0.2344970703125],"type":"VEC2"},{"bufferView":3,"componentType":5123,"count":36,"max":[23],"min":[0],"type":"SCALAR"},{"bufferView":4,"componentType":5126,"count":24,"max":[0,0.07500000298023224,0.09375],"min":[-0.0062500000931322575,0,-0.0062500000931322575],"type":"VEC3"},{"bufferView":5,"componentType":5126,"count":24,"max":[1,1,1],"min":[-1,-1,-1],"type":"VEC3"},{"bufferView":6,"componentType":5126,"count":24,"max":[0.5311279296875,0.4530029296875],"min":[0.2657470703125,0.2344970703125],"type":"VEC2"},{"bufferView":7,"componentType":5123,"count":36,"max":[23],"min":[0],"type":"SCALAR"},{"bufferView":8,"componentType":5126,"count":24,"max":[0.08124999701976776,0.07500000298023224,0],"min":[-0.0062500000931322575,0,-0.0062500000931322575],"type":"VEC3"},{"bufferView":9,"componentType":5126,"count":24,"max":[1,1,1],"min":[-1,-1,-1],"type":"VEC3"},{"bufferView":10,"componentType":5126,"count":24,"max":[0.4998779296875,0.5545654296875],"min":[0.2657470703125,0.4532470703125],"type":"VEC2"},{"bufferView":11,"componentType":5123,"count":36,"max":[23],"min":[0],"type":"SCALAR"},{"bufferView":12,"componentType":5126,"count":24,"max":[0.08124999701976776,0.0062500000931322575,0.08124999701976776],"min":[-0.0062500000931322575,0,-0.0062500000931322575],"type":"VEC3"},{"bufferView":13,"componentType":5126,"count":24,"max":[1,1,1],"min":[-1,-1,-1],"type":"VEC3"},{"bufferView":14,"componentType":5126,"count":24,"max":[0.4373779296875,0.1170654296875],"min":[0.0001220703125,0.0001220703125],"type":"VEC2"},{"bufferView":15,"componentType":5123,"count":36,"max":[23],"min":[0],"type":"SCALAR"},{"bufferView":16,"componentType":5126,"count":24,"max":[0.08124999701976776,0.07500000298023224,0],"min":[-0.0062500000931322575,0,-0.0062500000931322575],"type":"VEC3"},{"bufferView":17,"componentType":5126,"count":24,"max":[1,1,1],"min":[-1,-1,-1],"type":"VEC3"},{"bufferView":18,"componentType":5126,"count":24,"max":[0.7342529296875,0.5545654296875],"min":[0.5001220703125,0.4532470703125],"type":"VEC2"},{"bufferView":19,"componentType":5123,"count":36,"max":[23],"min":[0],"type":"SCALAR"},{"bufferView":20,"componentType":5126,"count":24,"max":[0.08124999701976776,0.0062500000931322575,0.08124999701976776],"min":[-0.0062500000931322575,0,-0.0062500000931322575],"type":"VEC3"},{"bufferView":21,"componentType":5126,"count":24,"max":[1,1,1],"min":[-1,-1,-1],"type":"VEC3"},{"bufferView":22,"componentType":5126,"count":24,"max":[0.4373779296875,0.2342529296875],"min":[0.0001220703125,0.1173095703125],"type":"VEC2"},{"bufferView":23,"componentType":5123,"count":36,"max":[23],"min":[0],"type":"SCALAR"},{"bufferView":24,"componentType":5126,"count":24,"max":[0.08124999701976776,0.02500000037252903,0],"min":[-0.0062500000931322575,0,-0.0062500000931322575],"type":"VEC3"},{"bufferView":25,"componentType":5126,"count":24,"max":[1,1,1],"min":[-1,-1,-1],"type":"VEC3"},{"bufferView":26,"componentType":5126,"count":24,"max":[0.6717529296875,0.1951904296875],"min":[0.4376220703125,0.1563720703125],"type":"VEC2"},{"bufferView":27,"componentType":5123,"count":36,"max":[23],"min":[0],"type":"SCALAR"},{"bufferView":28,"componentType":5126,"count":24,"max":[0.08124999701976776,0.02500000037252903,0],"min":[-0.0062500000931322575,0,-0.0062500000931322575],"type":"VEC3"},{"bufferView":29,"componentType":5126,"count":24,"max":[1,1,1],"min":[-1,-1,-1],"type":"VEC3"},{"bufferView":30,"componentType":5126,"count":24,"max":[0.6717529296875,0.2342529296875],"min":[0.4376220703125,0.1954345703125],"type":"VEC2"},{"bufferView":31,"componentType":5123,"count":36,"max":[23],"min":[0],"type":"SCALAR"},{"bufferView":32,"componentType":5126,"count":24,"max":[0,0.02500000037252903,0.09375],"min":[-0.0062500000931322575,0,-0.0062500000931322575],"type":"VEC3"},{"bufferView":33,"componentType":5126,"count":24,"max":[1,1,1],"min":[-1,-1,-1],"type":"VEC3"},{"bufferView":34,"componentType":5126,"count":24,"max":[0.7030029296875,0.1561279296875],"min":[0.4376220703125,0.0001220703125],"type":"VEC2"},{"bufferView":35,"componentType":5123,"count":36,"max":[23],"min":[0],"type":"SCALAR"},{"bufferView":36,"componentType":5126,"count":24,"max":[0,0.02500000037252903,0.09375],"min":[-0.0062500000931322575,0,-0.0062500000931322575],"type":"VEC3"},{"bufferView":37,"componentType":5126,"count":24,"max":[1,1,1],"min":[-1,-1,-1],"type":"VEC3"},{"bufferView":38,"componentType":5126,"count":24,"max":[0.2655029296875,0.6092529296875],"min":[0.0001220703125,0.4532470703125],"type":"VEC2"},{"bufferView":39,"componentType":5123,"count":36,"max":[23],"min":[0],"type":"SCALAR"},{"bufferView":40,"componentType":5126,"count":3,"max":[0.5],"min":[0],"type":"SCALAR"},{"bufferView":41,"componentType":5126,"count":3,"max":[0,0,0,1],"min":[0,0,-0.6087614297866821,0.7933533191680908],"type":"VEC4"}],"materials":[{"pbrMetallicRoughness":{"metallicFactor":0,"roughnessFactor":1,"baseColorTexture":{"index":0}},"alphaMode":"MASK","alphaCutoff":0.05,"doubleSided":true}],"textures":[{"sampler":0,"source":0,"name":"ChestTexture.png"}],"samplers":[{"magFilter":9728,"minFilter":9728,"wrapS":33071,"wrapT":33071}],"images":[{"mimeType":"image/png","uri":"data:image/png;base64,"}],"meshes":[{"primitives":[{"mode":4,"attributes":{"POSITION":0,"NORMAL":1,"TEXCOORD_0":2},"indices":3,"material":0}]},{"primitives":[{"mode":4,"attributes":{"POSITION":4,"NORMAL":5,"TEXCOORD_0":6},"indices":7,"material":0}]},{"primitives":[{"mode":4,"attributes":{"POSITION":8,"NORMAL":9,"TEXCOORD_0":10},"indices":11,"material":0}]},{"primitives":[{"mode":4,"attributes":{"POSITION":12,"NORMAL":13,"TEXCOORD_0":14},"indices":15,"material":0}]},{"primitives":[{"mode":4,"attributes":{"POSITION":16,"NORMAL":17,"TEXCOORD_0":18},"indices":19,"material":0}]},{"primitives":[{"mode":4,"attributes":{"POSITION":20,"NORMAL":21,"TEXCOORD_0":22},"indices":23,"material":0}]},{"primitives":[{"mode":4,"attributes":{"POSITION":24,"NORMAL":25,"TEXCOORD_0":26},"indices":27,"material":0}]},{"primitives":[{"mode":4,"attributes":{"POSITION":28,"NORMAL":29,"TEXCOORD_0":30},"indices":31,"material":0}]},{"primitives":[{"mode":4,"attributes":{"POSITION":32,"NORMAL":33,"TEXCOORD_0":34},"indices":35,"material":0}]},{"primitives":[{"mode":4,"attributes":{"POSITION":36,"NORMAL":37,"TEXCOORD_0":38},"indices":39,"material":0}]}],"animations":[{"name":"animation.open","samplers":[{"input":40,"output":41,"interpolation":"LINEAR"}],"channels":[{"sampler":0,"target":{"node":11,"path":"rotation"}}]}]}